
<svg width="673px" height="301px" viewBox="0 0 673 301" version="1.1" xmlns="http://www.w3.org/2000/svg" xmlns:xlink="http://www.w3.org/1999/xlink">
    <g id="Page-1" stroke="none" stroke-width="1" fill="none" fill-rule="evenodd">
        <g id="Group-2" transform="translate(1.000000, 0.000000)">
            <ellipse id="Oval" stroke="#979797" stroke-width="2" fill-opacity="0" fill="#FFFFFF" cx="45" cy="145.5" rx="45" ry="41.5"></ellipse>
            <text id="Data-Store" font-family="PTSans-Regular, PT Sans" font-size="18" font-weight="normal" fill="#000000">
                <tspan x="25" y="140">Data</tspan>
                <tspan x="25" y="161">Store</tspan>
            </text>
            <text id="Producer" font-family="PTSans-Regular, PT Sans" font-size="18" font-weight="normal" fill="#000000">
                <tspan x="186" y="150">Producer</tspan>
            </text>
            <text id="Consumer" font-family="PTSans-Regular, PT Sans" font-size="18" font-weight="normal" fill="#000000">
                <tspan x="589" y="152">Consumer</tspan>
            </text>
            <g id="Group" transform="translate(358.000000, 67.000000)">
                <text id="Flow" font-family="PTSans-Regular, PT Sans" font-size="18" font-weight="normal" fill="#000000">
                    <tspan x="36" y="25">Flow</tspan>
                </text>
                <rect id="Rectangle" stroke="#979797" stroke-width="2" fill-opacity="0" fill="#FFFFFF" x="1" y="1" width="107" height="40" rx="8"></rect>
            </g>
            <g id="Group" transform="translate(358.000000, 141.000000)">
                <text id="Flow" font-family="PTSans-Regular, PT Sans" font-size="18" font-weight="normal" fill="#000000">
                    <tspan x="36" y="25">Flow</tspan>
                </text>
                <rect id="Rectangle" stroke="#979797" stroke-width="2" fill-opacity="0" fill="#FFFFFF" x="1" y="1" width="107" height="40" rx="8"></rect>
            </g>
            <g id="Group" transform="translate(358.000000, 215.000000)">
                <text id="Flow" font-family="PTSans-Regular, PT Sans" font-size="18" font-weight="normal" fill="#000000">
                    <tspan x="36" y="25">Flow</tspan>
                </text>
                <rect id="Rectangle" stroke="#979797" stroke-width="2" fill-opacity="0" fill="#FFFFFF" x="1" y="1" width="107" height="40" rx="8"></rect>
            </g>
            <text id="Pipeline" font-family="PTSans-Regular, PT Sans" font-size="18" font-weight="normal" fill="#000000">
                <tspan x="381" y="30">Pipeline</tspan>
            </text>
            <path id="Line" d="M151,161 L100,161 L99.5,161 L99.5,160 L100,160 L151,160 L151,156 L160,160.5 L151,165 L151,161 Z" fill="#979797" fill-rule="nonzero"></path>
            <path id="Line" d="M323,142 L272,142 L271.5,142 L271.5,141 L272,141 L323,141 L323,137 L332,141.5 L323,146 L323,142 Z" fill="#979797" fill-rule="nonzero"></path>
            <path id="Line" d="M549,142 L498,142 L497.5,142 L497.5,141 L498,141 L549,141 L549,137 L558,141.5 L549,146 L549,142 Z" fill="#979797" fill-rule="nonzero"></path>
            <path id="Line" d="M412.5,132 L412.5,108.5 L412.5,108 L413.5,108 L413.5,108.5 L413.5,132 L417.5,132 L413,141 L408.5,132 L412.5,132 Z" fill="#979797" fill-rule="nonzero"></path>
            <path id="Line" d="M412.5,208 L412.5,184.5 L412.5,184 L413.5,184 L413.5,184.5 L413.5,208 L417.5,208 L413,217 L408.5,208 L412.5,208 Z" fill="#979797" fill-rule="nonzero"></path>
            <path id="Line" d="M412.5,281 L412.5,257.5 L412.5,257 L413.5,257 L413.5,257.5 L413.5,281 L417.5,281 L413,290 L408.5,281 L412.5,281 Z" fill="#979797" fill-rule="nonzero"></path>
            <path id="Line" d="M412.5,58 L412.5,34.5 L412.5,34 L413.5,34 L413.5,34.5 L413.5,58 L417.5,58 L413,67 L408.5,58 L412.5,58 Z" fill="#979797" fill-rule="nonzero"></path>
            <path id="Line" d="M108,134 L163,134 L163.5,134 L163.5,135 L163,135 L108,135 L108,139 L99,134.5 L108,130 L108,134 Z" fill="#979797" fill-rule="nonzero"></path>
            <rect id="Rectangle" stroke="#979797" stroke-width="2" fill-opacity="0" fill="#FFFFFF" x="177" y="88" width="86" height="106" rx="8"></rect>
            <rect id="Rectangle" stroke="#979797" stroke-width="2" fill-opacity="0" fill="#FFFFFF" x="585" y="89" width="86" height="106" rx="8"></rect>
            <path d="M346,1 C342.134007,1 339,4.13400675 339,8 L339,293 C339,296.865993 342.134007,300 346,300 L481,300 C484.865993,300 488,296.865993 488,293 L488,8 C488,4.13400675 484.865993,1 481,1 L346,1 Z" id="Rectangle" stroke="#979797" stroke-width="2" fill-opacity="0" fill="#FFFFFF"></path>
            <path id="Line" d="M549,142 L498,142 L497.5,142 L497.5,141 L498,141 L549,141 L549,137 L558,141.5 L549,146 L549,142 Z" fill="#979797" fill-rule="nonzero"></path>
        </g>
    </g>
</svg>