
<svg width="498px" height="122px" viewBox="0 0 498 122" version="1.1" xmlns="http://www.w3.org/2000/svg" xmlns:xlink="http://www.w3.org/1999/xlink">
    <g id="Page-1" stroke="none" stroke-width="1" fill="none" fill-rule="evenodd">
        <g id="Group" transform="translate(0.000000, 3.000000)">
            <path d="M32.0190193,80.256553 C42.4353524,79.8260951 53.1910701,82.0225688 63.2680187,78.9651791 C94.7474481,69.4141844 94.4516162,17.7400089 56.6110308,1.78252793 C32.8840504,-8.22320627 8.37378036,26.0552597 13.7491371,50.7548086 C17.5268948,68.1134545 32.1952715,77.7685517 44.9914393,84" id="Path" stroke="#4A90E2" stroke-width="6" fill-opacity="0" fill="#4A4A4A"></path>
            <path d="M435.019019,80.256553 C445.435352,79.8260951 456.19107,82.0225688 466.268019,78.9651791 C497.747448,69.4141844 497.451616,17.7400089 459.611031,1.78252793 C435.88405,-8.22320627 411.37378,26.0552597 416.749137,50.7548086 C420.526895,68.1134545 435.195272,77.7685517 447.991439,84" id="Path" stroke="#4A90E2" stroke-width="6" fill-opacity="0" fill="#4A4A4A"></path>
            <rect id="Rectangle" stroke="#4A90E2" fill="#4A90E2" x="172.5" y="11.5" width="174" height="60" rx="8"></rect>
            <text id="Streaming/Queue" font-family="PTSans-Regular, PT Sans" font-size="20" font-weight="normal" fill="#FFFFFF">
                <tspan x="185" y="49">Streaming/Queue</tspan>
            </text>
            <path id="Line" d="M149.140151,43.2869401 L55.3507567,42.999993 L53.8507637,42.9954038 L53.8599421,39.9954178 L55.3599351,40.000007 L149.14933,40.2869541 L149.173806,32.2869915 L168.144652,41.845077 L149.115676,51.2869026 L149.140151,43.2869401 Z" fill="#FFFFFF" fill-rule="nonzero"></path>
            <path id="Line" d="M445.140151,43.2869401 L351.350757,42.999993 L349.850764,42.9954038 L349.859942,39.9954178 L351.359935,40.000007 L445.14933,40.2869541 L445.173806,32.2869915 L464.144652,41.845077 L445.115676,51.2869026 L445.140151,43.2869401 Z" fill="#FFFFFF" fill-rule="nonzero"></path>
            <text id="function" font-family="PTSans-Regular, PT Sans" font-size="23" font-weight="normal" fill="#9B9B9B">
                <tspan x="0" y="116">function</tspan>
            </text>
            <text id="function" font-family="PTSans-Regular, PT Sans" font-size="23" font-weight="normal" fill="#9B9B9B">
                <tspan x="418" y="117">function</tspan>
            </text>
            <text id="any-type-of-streamin" font-family="PTSans-Regular, PT Sans" font-size="18" font-weight="normal" fill="#9B9B9B">
                <tspan x="137" y="115">any type of streaming service</tspan>
            </text>
        </g>
    </g>
</svg>