
<svg width="263px" height="200px" viewBox="0 0 263 200" version="1.1" xmlns="http://www.w3.org/2000/svg" xmlns:xlink="http://www.w3.org/1999/xlink">
    <g id="Page-1" stroke="none" stroke-width="1" fill="none" fill-rule="evenodd">
        <g id="Group" transform="translate(0.000000, -1.000000)">
            <path d="M37.8581734,49.7521843 C42.7096162,49.6086984 47.7191286,50.3408563 52.4125019,49.3217264 C67.0741539,46.1380615 66.9363692,28.9133363 49.311987,23.594176 C38.2610646,20.2589312 26.8453224,31.6850866 29.3489131,39.9182695 C31.1084168,45.7044848 37.9402634,48.9228506 43.9001224,51" id="Path" stroke="#4A90E2" stroke-width="6" fill="#4A4A4A"></path>
            <path d="M209.858173,49.7521843 C214.709616,49.6086984 219.719129,50.3408563 224.412502,49.3217264 C239.074154,46.1380615 238.936369,28.9133363 221.311987,23.594176 C210.261065,20.2589312 198.845322,31.6850866 201.348913,39.9182695 C203.108417,45.7044848 209.940263,48.9228506 215.900122,51" id="Path" stroke="#4A90E2" stroke-width="6" fill="#4A4A4A"></path>
            <path d="M121.858173,175.752184 C126.709616,175.608698 131.719129,176.340856 136.412502,175.321726 C151.074154,172.138061 150.936369,154.913336 133.311987,149.594176 C122.261065,146.258931 110.845322,157.685087 113.348913,165.91827 C115.108417,171.704485 121.940263,174.922851 127.900122,177" id="Path" stroke="#4A90E2" stroke-width="6" fill="#4A4A4A"></path>
            <path id="Line" d="M54.9909073,62.9845573 L116.399751,144.721407 L116.700083,145.121157 L115.900582,145.721822 L115.600249,145.322071 L54.1914063,63.5852219 L50.9934019,65.9878805 L49.1851749,56.0893799 L58.1889117,60.5818987 L54.9909073,62.9845573 Z" fill="#979797" fill-rule="nonzero"></path>
            <path id="Line" d="M204.960901,63.6999583 L147.406025,143.786047 L147.11423,144.192072 L146.302181,143.608483 L146.593975,143.202458 L204.148852,63.1163691 L200.900656,60.7820121 L209.807179,56.0997226 L208.209097,66.0343153 L204.960901,63.6999583 Z" fill="#979797" fill-rule="nonzero"></path>
            <text id="second_step_1" font-family="PTSans-Regular, PT Sans" font-size="15" font-weight="normal" fill="#000000">
                <tspan x="0" y="13">second_step_1</tspan>
            </text>
            <text id="second_step_2" font-family="PTSans-Regular, PT Sans" font-size="15" font-weight="normal" fill="#000000">
                <tspan x="172" y="13">second_step_2</tspan>
            </text>
            <text id="first_step" font-family="PTSans-Regular, PT Sans" font-size="15" font-weight="normal" fill="#000000">
                <tspan x="103" y="197">first_step</tspan>
            </text>
        </g>
    </g>
</svg>