
<svg width="479px" height="384px" viewBox="0 0 479 384" version="1.1" xmlns="http://www.w3.org/2000/svg" xmlns:xlink="http://www.w3.org/1999/xlink">
    <g id="Page-1" stroke="none" stroke-width="1" fill="none" fill-rule="evenodd">
        <g id="Group" transform="translate(0.000000, -2.000000)">
            <path d="M225.858173,232.752184 C230.709616,232.608698 235.719129,233.340856 240.412502,232.321726 C255.074154,229.138061 254.936369,211.913336 237.311987,206.594176 C226.261065,203.258931 214.845322,214.685087 217.348913,222.91827 C219.108417,228.704485 225.940263,231.922851 231.900122,234" id="Path" stroke="#4A90E2" stroke-width="6" fill="#4A4A4A"></path>
            <path d="M49.8581734,356.263054 C54.7096162,356.119568 59.7191286,356.851726 64.4125019,355.832596 C79.0741539,352.648931 78.9363692,335.424206 61.311987,330.105046 C50.2610646,326.769801 38.8453224,338.195956 41.3489131,346.429139 C43.1084168,352.215354 49.9402634,355.43372 55.9001224,357.51087" id="Path" stroke="#4A90E2" stroke-width="6" fill="#4A4A4A"></path>
            <path d="M49.8581734,83.7521843 C54.7096162,83.6086984 59.7191286,84.3408563 64.4125019,83.3217264 C79.0741539,80.1380615 78.9363692,62.9133363 61.311987,57.594176 C50.2610646,54.2589312 38.8453224,65.6850866 41.3489131,73.9182695 C43.1084168,79.7044848 49.9402634,82.9228506 55.9001224,85" id="Path" stroke="#4A90E2" stroke-width="6" fill="#4A4A4A"></path>
            <path id="Line" d="M57.9968543,92.0000099 L62.5533879,100.97152 L53.553566,101.028143 L57.9968543,92.0000099 Z M58.9999901,171.968743 L59.0031358,172.468733 L58.0031556,172.475025 L58.0000099,171.975035 L57.924513,159.975272 L57.9213673,159.475282 L58.9213475,159.468991 L58.9244932,159.968981 L58.9999901,171.968743 Z M58.8489963,147.969218 L58.852142,148.469208 L57.8521618,148.4755 L57.8490161,147.97551 L57.7735192,135.975747 L57.7703735,135.475757 L58.7703537,135.469466 L58.7734994,135.969456 L58.8489963,147.969218 Z M58.6980025,123.969693 L58.7011482,124.469683 L57.701168,124.475975 L57.6980223,123.975985 L57.6225254,111.976222 L57.6193797,111.476232 L58.6193599,111.469941 L58.6225056,111.969931 L58.6980025,123.969693 Z" fill="#979797" fill-rule="nonzero"></path>
            <path id="Line" d="M58.5,259.017241 L58.5,268.011494 L58.5,268.511494 L57.5,268.511494 L57.5,268.011494 L57.5,259.017241 L53.5,259.017241 L58,250.017241 L62.5,259.017241 L58.5,259.017241 Z M58.5,316.011494 L58.5,316.511494 L57.5,316.511494 L57.5,316.011494 L57.5,304.011494 L57.5,303.511494 L58.5,303.511494 L58.5,304.011494 L58.5,316.011494 Z M58.5,292.011494 L58.5,292.511494 L57.5,292.511494 L57.5,292.011494 L57.5,280.011494 L57.5,279.511494 L58.5,279.511494 L58.5,280.011494 L58.5,292.011494 Z" fill="#979797" fill-rule="nonzero"></path>
            <text id="second_flow" font-family="PTSans-Regular, PT Sans" font-size="15" font-weight="normal" fill="#000000">
                <tspan x="24" y="190.983383">second_flow</tspan>
            </text>
            <text id="first_flow" font-family="PTSans-Regular, PT Sans" font-size="15" font-weight="normal" fill="#000000">
                <tspan x="24" y="382">first_flow</tspan>
            </text>
            <path id="Line" d="M139.000109,219.485242 L206.500109,219.5 L207.000109,219.500109 L206.999891,220.500109 L206.499891,220.5 L138.99989,220.485242 L138.999016,224.485242 L130,219.983274 L139.000984,215.485242 L139.000109,219.485242 Z" fill="#979797" fill-rule="nonzero"></path>
            <path id="Line" d="M191.522201,240.063491 L80.8348329,339.871331 L80.4635016,340.206164 L79.7938358,339.463502 L80.1651671,339.128669 L190.852535,239.320828 L188.173872,236.350178 L197.871331,233.665167 L194.200864,243.034141 L191.522201,240.063491 Z" fill="#979797" fill-rule="nonzero"></path>
            <text id="{first_step:-result_" font-family="PTSans-Regular, PT Sans" font-size="10" font-weight="normal" fill="#000000">
                <tspan x="8" y="213.01087">{first_step: result_data,</tspan>
                <tspan x="8" y="225.01087"> second_step: result_data}</tspan>
            </text>
            <text id="second_step:-result_" font-family="PTSans-Regular, PT Sans" font-size="7" font-weight="normal" fill="#000000">
                <tspan x="138" y="209">second_step: result_data</tspan>
            </text>
            <rect id="Rectangle" stroke="#4A90E2" x="0.5" y="195.983383" width="123" height="48" rx="8"></rect>
            <text id="third_flow" font-family="PTSans-Regular, PT Sans" font-size="15" font-weight="normal" fill="#000000">
                <tspan x="27" y="41.5108696">third_flow</tspan>
            </text>
            <text id="subscribe-for-second" font-family="PTSans-Regular, PT Sans" font-size="15" font-weight="normal" fill="#000000">
                <tspan x="68" y="13.0217391">subscribe for second flow</tspan>
            </text>
        </g>
        <g id="Group" transform="translate(342.000000, -2.000000)">
            <path d="M53.8581734,281.62158 C58.7096162,281.478094 63.7191286,282.210252 68.4125019,281.191122 C83.0741539,278.007457 82.9363692,260.782732 65.311987,255.463572 C54.2610646,252.128327 42.8453224,263.554482 45.3489131,271.787665 C47.1084168,277.573881 53.9402634,280.792247 59.9001224,282.869396" id="Path" stroke="#4A90E2" stroke-width="6" fill="#4A4A4A"></path>
            <path d="M53.8581734,356.263054 C58.7096162,356.119568 63.7191286,356.851726 68.4125019,355.832596 C83.0741539,352.648931 82.9363692,335.424206 65.311987,330.105046 C54.2610646,326.769801 42.8453224,338.195956 45.3489131,346.429139 C47.1084168,352.215354 53.9402634,355.43372 59.9001224,357.51087" id="Path" stroke="#4A90E2" stroke-width="6" fill="#4A4A4A"></path>
            <path d="M53.8581734,83.7521843 C58.7096162,83.6086984 63.7191286,84.3408563 68.4125019,83.3217264 C83.0741539,80.1380615 82.9363692,62.9133363 65.311987,57.594176 C54.2610646,54.2589312 42.8453224,65.6850866 45.3489131,73.9182695 C47.1084168,79.7044848 53.9402634,82.9228506 59.9001224,85" id="Path" stroke="#4A90E2" stroke-width="6" fill="#4A4A4A"></path>
            <path id="Line" d="M62,92 L66.5,101 L57.5,101 L62,92 Z M62.5,144.5 L62.5,145 L61.5,145 L61.5,144.5 L61.5,132.5 L61.5,132 L62.5,132 L62.5,132.5 L62.5,144.5 Z M62.5,120.5 L62.5,121 L61.5,121 L61.5,120.5 L61.5,108.5 L61.5,108 L62.5,108 L62.5,108.5 L62.5,120.5 Z" fill="#979797" fill-rule="nonzero"></path>
            <path id="Line" d="M63,216.483383 L63,223.983383 L63,224.483383 L62,224.483383 L62,223.983383 L62,216.483383 L58,216.483383 L62.5,207.483383 L67,216.483383 L63,216.483383 Z M63,247.983383 L63,248.483383 L62,248.483383 L62,247.983383 L62,235.983383 L62,235.483383 L63,235.483383 L63,235.983383 L63,247.983383 Z" fill="#979797" fill-rule="nonzero"></path>
            <text id="second_flow" font-family="PTSans-Regular, PT Sans" font-size="15" font-weight="normal" fill="#000000">
                <tspan x="28" y="162">second_flow</tspan>
            </text>
            <text id="first_flow" font-family="PTSans-Regular, PT Sans" font-size="15" font-weight="normal" fill="#000000">
                <tspan x="28" y="382">first_flow</tspan>
            </text>
            <path id="Line" d="M63.9448145,300 L63.9448145,320.880266 L63.9448145,321.380266 L62.9448145,321.380266 L62.9448145,320.880266 L62.9448145,300 L58.9448145,300 L63.4448145,291 L67.9448145,300 L63.9448145,300 Z" fill="#979797" fill-rule="nonzero"></path>
            <text id="{second_step:-result" font-family="PTSans-Regular, PT Sans" font-size="10" font-weight="normal" fill="#000000">
                <tspan x="13" y="193.494253">{second_step: result_data}</tspan>
            </text>
            <rect id="Rectangle" stroke="#4A90E2" x="6.5" y="171" width="123" height="48" rx="8"></rect>
            <text id="third_flow" font-family="PTSans-Regular, PT Sans" font-size="15" font-weight="normal" fill="#000000">
                <tspan x="31" y="41.5108696">third_flow</tspan>
            </text>
            <text id="apply-for-second-flo" font-family="PTSans-Regular, PT Sans" font-size="15" font-weight="normal" fill="#000000">
                <tspan x="0" y="13.0217391">apply for second flow</tspan>
            </text>
        </g>
    </g>
</svg>