
<svg width="363px" height="319px" viewBox="0 0 363 319" version="1.1" xmlns="http://www.w3.org/2000/svg" xmlns:xlink="http://www.w3.org/1999/xlink">
    <g id="Page-1" stroke="none" stroke-width="1" fill="none" fill-rule="evenodd">
        <g id="Group" transform="translate(197.500000, 66.500000) rotate(90.000000) translate(-197.500000, -66.500000) translate(156.000000, -85.000000)">
            <path d="M22.8160353,170.752184 C27.0967202,170.608698 31.5168781,171.340856 35.6580899,170.321726 C48.5948417,167.138061 48.4732669,149.913336 32.9223414,144.594176 C23.1715275,141.258931 13.0988138,152.685087 15.3078645,160.91827 C16.8603677,166.704485 22.8884677,169.922851 28.1471668,172" id="Path" stroke="#4A90E2" stroke-width="6" fill="#4A4A4A"></path>
            <path d="M22.8160353,273.752184 C27.0967202,273.608698 31.5168781,274.340856 35.6580899,273.321726 C48.5948417,270.138061 48.4732669,252.913336 32.9223414,247.594176 C23.1715275,244.258931 13.0988138,255.685087 15.3078645,263.91827 C16.8603677,269.704485 22.8884677,272.922851 28.1471668,275" id="Path" stroke="#4A90E2" stroke-width="6" fill="#4A4A4A"></path>
            <path id="Line" d="M30.8258699,191.495197 L31.2499801,238.995536 L31.2544442,239.495516 L30.254484,239.504444 L30.2500199,239.004464 L29.8259098,191.504125 L25.8260692,191.539838 L30.2455359,182.50002 L34.8257105,191.459484 L30.8258699,191.495197 Z" fill="#979797" fill-rule="nonzero"></path>
            <path id="Line" d="M29.8258699,67.4951971 L30.2499801,114.995536 L30.2544442,115.495516 L29.254484,115.504444 L29.2500199,115.004464 L28.8259098,67.5041253 L24.8260692,67.5398382 L29.2455359,58.5000199 L33.8257105,67.4594842 L29.8258699,67.4951971 Z" fill="#979797" fill-rule="nonzero"></path>
            <text id="second_step" font-family="PTSans-Regular, PT Sans" font-size="15" font-weight="normal" fill="#000000">
                <tspan x="0" y="128">second_step</tspan>
            </text>
            <text id="third_step" font-family="PTSans-Regular, PT Sans" font-size="15" font-weight="normal" fill="#000000">
                <tspan x="0" y="13">third_step</tspan>
            </text>
            <text id="first_step" font-family="PTSans-Regular, PT Sans" font-size="15" font-weight="normal" fill="#000000">
                <tspan x="0" y="299">first_step</tspan>
            </text>
            <path d="M19.8160353,55.7521843 C24.0967202,55.6086984 28.5168781,56.3408563 32.6580899,55.3217264 C45.5948417,52.1380615 45.4732669,34.9133363 29.9223414,29.594176 C20.1715275,26.2589312 10.0988138,37.6850866 12.3078645,45.9182695 C13.8603677,51.7044848 19.8884677,54.9228506 25.1471668,57" id="Path" stroke="#4A90E2" stroke-width="6" fill="#4A4A4A"></path>
        </g>
        <g id="Group" transform="translate(197.500000, 203.500000) rotate(90.000000) translate(-197.500000, -203.500000) translate(156.000000, 52.000000)">
            <path d="M22.8160353,170.752184 C27.0967202,170.608698 31.5168781,171.340856 35.6580899,170.321726 C48.5948417,167.138061 48.4732669,149.913336 32.9223414,144.594176 C23.1715275,141.258931 13.0988138,152.685087 15.3078645,160.91827 C16.8603677,166.704485 22.8884677,169.922851 28.1471668,172" id="Path" stroke="#4A90E2" stroke-width="6" fill="#4A4A4A"></path>
            <path d="M22.8160353,273.752184 C27.0967202,273.608698 31.5168781,274.340856 35.6580899,273.321726 C48.5948417,270.138061 48.4732669,252.913336 32.9223414,247.594176 C23.1715275,244.258931 13.0988138,255.685087 15.3078645,263.91827 C16.8603677,269.704485 22.8884677,272.922851 28.1471668,275" id="Path" stroke="#4A90E2" stroke-width="6" fill="#4A4A4A"></path>
            <path id="Line" d="M30.8258699,191.495197 L31.2499801,238.995536 L31.2544442,239.495516 L30.254484,239.504444 L30.2500199,239.004464 L29.8259098,191.504125 L25.8260692,191.539838 L30.2455359,182.50002 L34.8257105,191.459484 L30.8258699,191.495197 Z" fill="#979797" fill-rule="nonzero"></path>
            <path id="Line" d="M29.8258699,67.4951971 L30.2499801,114.995536 L30.2544442,115.495516 L29.254484,115.504444 L29.2500199,115.004464 L28.8259098,67.5041253 L24.8260692,67.5398382 L29.2455359,58.5000199 L33.8257105,67.4594842 L29.8258699,67.4951971 Z" fill="#979797" fill-rule="nonzero"></path>
            <text id="second_step" font-family="PTSans-Regular, PT Sans" font-size="15" font-weight="normal" fill="#000000">
                <tspan x="0" y="128">second_step</tspan>
            </text>
            <text id="third_step" font-family="PTSans-Regular, PT Sans" font-size="15" font-weight="normal" fill="#000000">
                <tspan x="0" y="13">third_step</tspan>
            </text>
            <text id="first_step" font-family="PTSans-Regular, PT Sans" font-size="15" font-weight="normal" fill="#000000">
                <tspan x="0" y="299">first_step</tspan>
            </text>
            <path d="M19.8160353,55.7521843 C24.0967202,55.6086984 28.5168781,56.3408563 32.6580899,55.3217264 C45.5948417,52.1380615 45.4732669,34.9133363 29.9223414,29.594176 C20.1715275,26.2589312 10.0988138,37.6850866 12.3078645,45.9182695 C13.8603677,51.7044848 19.8884677,54.9228506 25.1471668,57" id="Path" stroke="#4A90E2" stroke-width="6" fill="#4A4A4A"></path>
        </g>
        <g id="Group-2" transform="translate(0.000000, -1.000000)">
            <path id="Line-2" d="M25.0915112,192.75 L0.555195289,192.75 L0.0551952887,192.75 L0.0551952887,192.25 L0.0551952887,132.5 L0.0551952887,132 L0.555195289,132 L358,132 L358,53 L358,52.5 L359,52.5 L359,53 L359,132.5 L359,133 L358.5,133 L1.05519529,133 L1.05519529,191.75 L25.0915112,191.75 L25.0915112,187.75 L34.0915112,192.25 L25.0915112,196.75 L25.0915112,192.75 Z" fill="#979797" fill-rule="nonzero"></path>
            <path id="Line-2" d="M28.536316,315.75 L4,315.75 L3.5,315.75 L3.5,315.25 L3.5,255.5 L3.5,255 L4,255 L361.444805,255 L361.444805,176 L361.444805,175.5 L362.444805,175.5 L362.444805,176 L362.444805,255.5 L362.444805,256 L361.944805,256 L4.5,256 L4.5,314.75 L28.536316,314.75 L28.536316,310.75 L37.536316,315.25 L28.536316,319.75 L28.536316,315.75 Z" fill="#979797" fill-rule="nonzero"></path>
            <path id="Line-3" d="M32,55.75 L0.555195289,55.75 L0.0551952887,55.75 L0.0551952887,54.75 L0.555195289,54.75 L32,54.75 L32,50.75 L41,55.25 L32,59.75 L32,55.75 Z" fill="#979797" fill-rule="nonzero"></path>
            <text id="Flow1" font-family="PTSans-Regular, PT Sans" font-size="15" font-weight="normal" fill="#000000">
                <tspan x="152" y="13">Flow1</tspan>
            </text>
            <text id="Flow2" font-family="PTSans-Regular, PT Sans" font-size="15" font-weight="normal" fill="#000000">
                <tspan x="152" y="153">Flow2</tspan>
            </text>
            <text id="Flow3" font-family="PTSans-Regular, PT Sans" font-size="15" font-weight="normal" fill="#000000">
                <tspan x="152" y="281">Flow3</tspan>
            </text>
        </g>
    </g>
</svg>