
<svg width="251px" height="356px" viewBox="0 0 251 356" version="1.1" xmlns="http://www.w3.org/2000/svg" xmlns:xlink="http://www.w3.org/1999/xlink">
    <g id="Page-1" stroke="none" stroke-width="1" fill="none" fill-rule="evenodd">
        <g id="Group" transform="translate(0.000000, -2.000000)">
            <path d="M25.8581734,200.752184 C30.7096162,200.608698 35.7191286,201.340856 40.4125019,200.321726 C55.0741539,197.138061 54.9363692,179.913336 37.311987,174.594176 C26.2610646,171.258931 14.8453224,182.685087 17.3489131,190.91827 C19.1084168,196.704485 25.9402634,199.922851 31.9001224,202" id="Path" stroke="#4A90E2" stroke-width="6" fill="#4A4A4A"></path>
            <path d="M25.8581734,328.263054 C30.7096162,328.119568 35.7191286,328.851726 40.4125019,327.832596 C55.0741539,324.648931 54.9363692,307.424206 37.311987,302.105046 C26.2610646,298.769801 14.8453224,310.195956 17.3489131,318.429139 C19.1084168,324.215354 25.9402634,327.43372 31.9001224,329.51087" id="Path" stroke="#4A90E2" stroke-width="6" fill="#4A4A4A"></path>
            <path d="M25.8581734,55.7521843 C30.7096162,55.6086984 35.7191286,56.3408563 40.4125019,55.3217264 C55.0741539,52.1380615 54.9363692,34.9133363 37.311987,29.594176 C26.2610646,26.2589312 14.8453224,37.6850866 17.3489131,45.9182695 C19.1084168,51.7044848 25.9402634,54.9228506 31.9001224,57" id="Path" stroke="#4A90E2" stroke-width="6" fill="#4A4A4A"></path>
            <path id="Line" d="M34.548848,216.002733 L34.9999917,294.491379 L35.0028656,294.991371 L34.0028822,294.997119 L34.0000083,294.497127 L33.5488645,216.008481 L29.5489306,216.031472 L33.9971261,207.005755 L38.5487819,215.979742 L34.548848,216.002733 Z" fill="#979797" fill-rule="nonzero"></path>
            <path id="Line" d="M33.9968543,64.0000099 L38.5533879,72.9715204 L29.553566,73.0281431 L33.9968543,64.0000099 Z M34.9999901,143.968743 L35.0031358,144.468733 L34.0031556,144.475025 L34.0000099,143.975035 L33.924513,131.975272 L33.9213673,131.475282 L34.9213475,131.468991 L34.9244932,131.968981 L34.9999901,143.968743 Z M34.8489963,119.969218 L34.852142,120.469208 L33.8521618,120.4755 L33.8490161,119.97551 L33.7735192,107.975747 L33.7703735,107.475757 L34.7703537,107.469466 L34.7734994,107.969456 L34.8489963,119.969218 Z M34.6980025,95.9696933 L34.7011482,96.4696834 L33.701168,96.4759748 L33.6980223,95.9759847 L33.6225254,83.9762222 L33.6193797,83.4762321 L34.6193599,83.4699407 L34.6225056,83.9699308 L34.6980025,95.9696933 Z" fill="#979797" fill-rule="nonzero"></path>
            <text id="second_step" font-family="PTSans-Regular, PT Sans" font-size="15" font-weight="normal" fill="#000000">
                <tspan x="0" y="162.983383">second_step</tspan>
            </text>
            <text id="first_step" font-family="PTSans-Regular, PT Sans" font-size="15" font-weight="normal" fill="#000000">
                <tspan x="0" y="354">first_step</tspan>
            </text>
            <path id="Line" d="M105.695537,189 L56.5,189 L56,189 L56,188 L56.5,188 L105.695537,188 L105.695537,184 L114.695537,188.5 L105.695537,193 L105.695537,189 Z" fill="#979797" fill-rule="nonzero"></path>
            <path id="Line" d="M116.630377,156.515247 L56.0737572,57.7613753 L55.8123819,57.3351325 L56.6648675,56.8123819 L56.9262428,57.2386247 L117.482862,155.992497 L120.892805,153.901494 L121.761375,163.926243 L113.220434,158.60625 L116.630377,156.515247 Z" fill="#979797" fill-rule="nonzero"></path>
            <path id="Line" d="M114.560897,215.548739 L56.9289292,311.756943 L56.6719861,312.185872 L55.8141277,311.671986 L56.0710708,311.243057 L113.703038,215.034853 L110.271605,212.979308 L118.756943,207.571071 L117.99233,217.604284 L114.560897,215.548739 Z" fill="#979797" fill-rule="nonzero"></path>
            <text id="{first_step:-result_" font-family="PTSans-Regular, PT Sans" font-size="10" font-weight="normal" fill="#000000">
                <tspan x="135" y="183">{first_step: result_data,</tspan>
                <tspan x="135" y="195"> second_step: result_data,</tspan>
                <tspan x="135" y="207"> third_step: result_data}</tspan>
            </text>
            <rect id="Rectangle" stroke="#4A90E2" x="127.5" y="168.5" width="123" height="48" rx="8"></rect>
            <text id="third_step" font-family="PTSans-Regular, PT Sans" font-size="15" font-weight="normal" fill="#000000">
                <tspan x="3" y="13.5108696">third_step</tspan>
            </text>
        </g>
    </g>
</svg>