
<svg width="159px" height="223px" viewBox="0 0 159 223" version="1.1" xmlns="http://www.w3.org/2000/svg" xmlns:xlink="http://www.w3.org/1999/xlink">
    <g id="Page-1" stroke="none" stroke-width="1" fill="none" fill-rule="evenodd">
        <g id="Group" transform="translate(0.000000, -3.000000)">
            <path d="M25.8581734,51.7521843 C30.7096162,51.6086984 35.7191286,52.3408563 40.4125019,51.3217264 C55.0741539,48.1380615 54.9363692,30.9133363 37.311987,25.594176 C26.2610646,22.2589312 14.8453224,33.6850866 17.3489131,41.9182695 C19.1084168,47.7044848 25.9402634,50.9228506 31.9001224,53" id="Path" stroke="#4A90E2" stroke-width="6" fill="#4A4A4A"></path>
            <path d="M25.8581734,179.263054 C30.7096162,179.119568 35.7191286,179.851726 40.4125019,178.832596 C55.0741539,175.648931 54.9363692,158.424206 37.311987,153.105046 C26.2610646,149.769801 14.8453224,161.195956 17.3489131,169.429139 C19.1084168,175.215354 25.9402634,178.43372 31.9001224,180.51087" id="Path" stroke="#4A90E2" stroke-width="6" fill="#4A4A4A"></path>
            <path d="M121.858173,179.752184 C126.709616,179.608698 131.719129,180.340856 136.412502,179.321726 C151.074154,176.138061 150.936369,158.913336 133.311987,153.594176 C122.261065,150.258931 110.845322,161.685087 113.348913,169.91827 C115.108417,175.704485 121.940263,178.922851 127.900122,181" id="Path" stroke="#4A90E2" stroke-width="6" fill="#4A4A4A"></path>
            <path id="Line" d="M34.548848,67.0027328 L34.9999917,145.491379 L35.0028656,145.991371 L34.0028822,145.997119 L34.0000083,145.497127 L33.5488645,67.0084806 L29.5489306,67.0314718 L33.9971261,58.0057554 L38.5487819,66.9797417 L34.548848,67.0027328 Z" fill="#979797" fill-rule="nonzero"></path>
            <path id="Line" d="M56.055049,59.5138358 L130.371803,142.165691 L130.706112,142.537495 L129.962505,143.206112 L129.628197,142.834309 L55.3114422,60.1824529 L52.3370149,62.8569215 L49.6656914,53.1556828 L59.0294764,56.8393673 L56.055049,59.5138358 Z" fill="#979797" fill-rule="nonzero"></path>
            <text id="second_step" font-family="PTSans-Regular, PT Sans" font-size="15" font-weight="normal" fill="#000000">
                <tspan x="0" y="13.9833833">second_step</tspan>
            </text>
            <text id="Flow1:-first_step" font-family="PTSans-Regular, PT Sans" font-size="15" font-weight="normal" fill="#000000">
                <tspan x="0" y="205">Flow1:</tspan>
                <tspan x="0" y="222">first_step</tspan>
            </text>
            <text id="Flow2:-first_step" font-family="PTSans-Regular, PT Sans" font-size="15" font-weight="normal" fill="#000000">
                <tspan x="102" y="204.5">Flow2:</tspan>
                <tspan x="102" y="221.5">first_step</tspan>
            </text>
        </g>
    </g>
</svg>