

<svg width="1199px" height="331px" viewBox="0 0 1199 331" version="1.1" xmlns="http://www.w3.org/2000/svg" xmlns:xlink="http://www.w3.org/1999/xlink">
    <defs>
        <path d="M13.5,298.343547 L13.7893066,266.343547" id="path-1"></path>
        <path d="M13.5,252 L13.7893066,208.343547" id="path-2"></path>
        <path d="M12.5,193 L12.7893066,149.343547" id="path-3"></path>
        <path d="M12.5,135 L12.5,81.5" id="path-4"></path>
        <path d="M13.5,72 L13.7893066,22.5" id="path-5"></path>
        <path d="M13.5,14 L74.5,14.5" id="path-6"></path>
        <path d="M80.5,15 L126.789307,41.5" id="path-7"></path>
        <path d="M126.5,48 L103.644653,97.5" id="path-8"></path>
        <path d="M97.5,101 L67.5,135" id="path-9"></path>
        <path d="M61.3679199,144.5 L97.5,197.5" id="path-10"></path>
        <path d="M98.5,203 L115.072327,261.343547" id="path-11"></path>
        <path d="M116.5,266 L126.789307,292.5" id="path-12"></path>
    </defs>
    <g id="Page-1" stroke="none" stroke-width="1" fill="none" fill-rule="evenodd">
        <g id="Group" transform="translate(0.000000, 19.000000)">
            <path d="M66.1851805,34.4086586 C70.1203589,34.2616516 74.1837532,35.011776 77.9907157,33.9676376 C89.8833049,30.7058484 89.7715428,13.0584442 75.4757775,7.60875652 C66.5119799,4.19166791 57.2522641,15.8982107 59.2830159,24.3334285 C60.7102121,30.2616322 66.2517667,33.5589737 71.086021,35.6870945" id="Path" stroke="#4A90E2" stroke-width="6" fill="#FFFFFF"></path>
            <path d="M164.185181,53.4086586 C168.120359,53.2616516 172.183753,54.011776 175.990716,52.9676376 C187.883305,49.7058484 187.771543,32.0584442 173.475777,26.6087565 C164.51198,23.1916679 155.252264,34.8982107 157.283016,43.3334285 C158.710212,49.2616322 164.251767,52.5589737 169.086021,54.6870945" id="Path" stroke="#4A90E2" stroke-width="6" fill="#FFFFFF"></path>
            <path d="M38.1851805,86.4086586 C42.1203589,86.2616516 46.1837532,87.011776 49.9907157,85.9676376 C61.8833049,82.7058484 61.7715428,65.0584442 47.4757775,59.6087565 C38.5119799,56.1916679 29.2522641,67.8982107 31.2830159,76.3334285 C32.7102121,82.2616322 38.2517667,85.5589737 43.086021,87.6870945" id="Path" stroke="#4A90E2" stroke-width="6" fill="#FFFFFF"></path>
            <path d="M126.185181,161.408659 C130.120359,161.261652 134.183753,162.011776 137.990716,160.967638 C149.883305,157.705848 149.771543,140.058444 135.475777,134.608757 C126.51198,131.191668 117.252264,142.898211 119.283016,151.333428 C120.710212,157.261632 126.251767,160.558974 131.086021,162.687095" id="Path" stroke="#4A90E2" stroke-width="6" fill="#FFFFFF"></path>
            <path d="M164.185181,205.408659 C168.120359,205.261652 172.183753,206.011776 175.990716,204.967638 C187.883305,201.705848 187.771543,184.058444 173.475777,178.608757 C164.51198,175.191668 155.252264,186.898211 157.283016,195.333428 C158.710212,201.261632 164.251767,204.558974 169.086021,206.687095" id="Path" stroke="#4A90E2" stroke-width="6" fill="#FFFFFF"></path>
            <path d="M14.1851805,210.408659 C18.1203589,210.261652 22.1837532,211.011776 25.9907157,209.967638 C37.8833049,206.705848 37.7715428,189.058444 23.4757775,183.608757 C14.5119799,180.191668 5.25226408,191.898211 7.2830159,200.333428 C8.71021208,206.261632 14.2517667,209.558974 19.086021,211.687095" id="Path" stroke="#4A90E2" stroke-width="6" fill="#FFFFFF"></path>
            <path d="M136.185181,259.408659 C140.120359,259.261652 144.183753,260.011776 147.990716,258.967638 C159.883305,255.705848 159.771543,238.058444 145.475777,232.608757 C136.51198,229.191668 127.252264,240.898211 129.283016,249.333428 C130.710212,255.261632 136.251767,258.558974 141.086021,260.687095" id="Path" stroke="#4A90E2" stroke-width="6" fill="#FFFFFF"></path>
            <path d="M87.1851805,280.408659 C91.1203589,280.261652 95.1837532,281.011776 98.9907157,279.967638 C110.883305,276.705848 110.771543,259.058444 96.4757775,253.608757 C87.5119799,250.191668 78.2522641,261.898211 80.2830159,270.333428 C81.7102121,276.261632 87.2517667,279.558974 92.086021,281.687095" id="Path" stroke="#4A90E2" stroke-width="6" fill="#FFFFFF"></path>
            <path d="M38.1851805,256.408659 C42.1203589,256.261652 46.1837532,257.011776 49.9907157,255.967638 C61.8833049,252.705848 61.7715428,235.058444 47.4757775,229.608757 C38.5119799,226.191668 29.2522641,237.898211 31.2830159,246.333428 C32.7102121,252.261632 38.2517667,255.558974 43.086021,257.687095" id="Path" stroke="#4A90E2" stroke-width="6" fill="#FFFFFF"></path>
            <path d="M80.1851805,128.408659 C84.1203589,128.261652 88.1837532,129.011776 91.9907157,127.967638 C103.883305,124.705848 103.771543,107.058444 89.4757775,101.608757 C80.5119799,98.1916679 71.2522641,109.898211 73.2830159,118.333428 C74.7102121,124.261632 80.2517667,127.558974 85.086021,129.687095" id="Path" stroke="#4A90E2" stroke-width="6" fill="#FFFFFF"></path>
            <path d="M117.185181,27.4086586 C121.120359,27.2616516 125.183753,28.011776 128.990716,26.9676376 C140.883305,23.7058484 140.771543,6.0584442 126.475777,0.608756515 C117.51198,-2.80833209 108.252264,8.89821067 110.283016,17.3334285 C111.710212,23.2616322 117.251767,26.5589737 122.086021,28.6870945" id="Path" stroke="#4A90E2" stroke-width="6" fill="#FFFFFF"></path>
            <path id="Line" d="M81.1185463,19.5761293 L118.925114,13.8491869 L119.419475,13.7743012 L119.569246,14.7630218 L119.074886,14.8379076 L81.2683178,20.5648499 L81.8674038,24.5197324 L72.2949463,21.418433 L80.5194604,15.6212467 L81.1185463,19.5761293 Z" fill="#000000" fill-rule="nonzero"></path>
            <path id="Line-2" d="M47.9859749,65.4516963 L69.0483972,21.1289431 L69.2630014,20.6773403 L70.1662069,21.1065487 L69.9516028,21.5581514 L48.8891804,65.8809046 L52.5020024,67.597738 L44.5747025,73.79515 L44.3731529,63.7348628 L47.9859749,65.4516963 Z" fill="#000000" fill-rule="nonzero"></path>
            <path id="Line-2" d="M80.4672472,109.639902 L49.1438482,77.8509357 L48.7929125,77.494784 L49.505216,76.7929125 L49.8561518,77.1490643 L81.1795507,108.938031 L84.0287651,106.130545 L87.1402424,115.699699 L77.6180328,112.447388 L80.4672472,109.639902 Z" fill="#000000" fill-rule="nonzero"></path>
            <path id="Line-2" d="M125.607497,143.769532 L91.2071032,118.90523 L90.8018731,118.612333 L91.3876666,117.801873 L91.7928968,118.09477 L126.193291,142.959072 L128.536465,139.717231 L133.194537,148.636444 L123.264323,147.011373 L125.607497,143.769532 Z" fill="#000000" fill-rule="nonzero"></path>
            <path id="Line-2" d="M165.274138,190.856412 L138.100702,154.800934 L137.799768,154.401635 L138.598365,153.799768 L138.899298,154.199066 L166.072735,190.254545 L169.26712,187.847077 L171.09024,197.742845 L162.079753,193.263881 L165.274138,190.856412 Z" fill="#000000" fill-rule="nonzero"></path>
            <path id="Line-2" d="M146.382275,238.624054 L167.059868,200.262759 L167.297109,199.822626 L168.177374,200.297109 L167.940132,200.737241 L147.26254,239.098536 L150.7836,240.996466 L142.552065,246.78368 L142.861215,236.726124 L146.382275,238.624054 Z" fill="#000000" fill-rule="nonzero"></path>
            <path id="Line-2" d="M103.509446,263.533699 L137.302922,249.040478 L137.762444,248.8434 L138.1566,249.762444 L137.697078,249.959522 L103.903602,264.452743 L105.480226,268.128917 L95.4351315,267.540625 L101.932822,259.857525 L103.509446,263.533699 Z" fill="#000000" fill-rule="nonzero"></path>
            <path id="Line-2" d="M52.5961005,249.74266 L86.7261783,267.054081 L87.1720969,267.28026 L86.7197402,268.172097 L86.2738217,267.945919 L52.1437439,250.634497 L50.3343172,254.201846 L44.3433881,246.117369 L54.4055272,246.175312 L52.5961005,249.74266 Z" fill="#000000" fill-rule="nonzero"></path>
            <path id="Line-2" d="M25.125564,204.671362 L42.9445142,239.271074 L43.1734402,239.715588 L42.2844119,240.17344 L42.0554858,239.728926 L24.2365356,205.129214 L20.6804222,206.960623 L20.5603806,196.899033 L28.6816774,202.839954 L25.125564,204.671362 Z" fill="#000000" fill-rule="nonzero"></path>
            <path id="Line-2" d="M136.423001,18.5147648 L169.770116,39.9227893 L170.190874,40.1929055 L169.650642,41.0344214 L169.229884,40.7643052 L135.882769,19.3562806 L133.721839,22.7223441 L128.579242,14.073431 L138.583931,15.1487013 L136.423001,18.5147648 Z" fill="#000000" fill-rule="nonzero"></path>
            <path id="Line-2" d="M180.216933,53.0728567 L193.912466,73.0609315 L194.195082,73.4733977 L193.37015,74.0386292 L193.087534,73.626163 L179.392001,53.6380881 L176.092272,55.8990139 L174.717384,45.9310811 L183.516663,50.8119309 L180.216933,53.0728567 Z" fill="#000000" fill-rule="nonzero"></path>
            <path id="Line-2" d="M4.97597923,169.930409 L16.9400425,192.106139 L17.1774506,192.546182 L16.2973655,193.020998 L16.0599575,192.580955 L4.09589418,170.405225 L0.575554,172.30449 L0.262591959,162.247052 L8.49631941,168.031145 L4.97597923,169.930409 Z" fill="#000000" fill-rule="nonzero"></path>
        </g>
        <g id="Group" transform="translate(1004.000000, 33.000000)">
            <path d="M66.1851805,34.4086586 C70.1203589,34.2616516 74.1837532,35.011776 77.9907157,33.9676376 C89.8833049,30.7058484 89.7715428,13.0584442 75.4757775,7.60875652 C66.5119799,4.19166791 57.2522641,15.8982107 59.2830159,24.3334285 C60.7102121,30.2616322 66.2517667,33.5589737 71.086021,35.6870945" id="Path" stroke="#4A90E2" stroke-width="6" fill="#FFFFFF"></path>
            <path d="M164.185181,53.4086586 C168.120359,53.2616516 172.183753,54.011776 175.990716,52.9676376 C187.883305,49.7058484 187.771543,32.0584442 173.475777,26.6087565 C164.51198,23.1916679 155.252264,34.8982107 157.283016,43.3334285 C158.710212,49.2616322 164.251767,52.5589737 169.086021,54.6870945" id="Path" stroke="#4A90E2" stroke-width="6" fill="#FFFFFF"></path>
            <path d="M38.1851805,86.4086586 C42.1203589,86.2616516 46.1837532,87.011776 49.9907157,85.9676376 C61.8833049,82.7058484 61.7715428,65.0584442 47.4757775,59.6087565 C38.5119799,56.1916679 29.2522641,67.8982107 31.2830159,76.3334285 C32.7102121,82.2616322 38.2517667,85.5589737 43.086021,87.6870945" id="Path" stroke="#4A90E2" stroke-width="6" fill="#FFFFFF"></path>
            <path d="M126.185181,161.408659 C130.120359,161.261652 134.183753,162.011776 137.990716,160.967638 C149.883305,157.705848 149.771543,140.058444 135.475777,134.608757 C126.51198,131.191668 117.252264,142.898211 119.283016,151.333428 C120.710212,157.261632 126.251767,160.558974 131.086021,162.687095" id="Path" stroke="#4A90E2" stroke-width="6" fill="#FFFFFF"></path>
            <path d="M164.185181,205.408659 C168.120359,205.261652 172.183753,206.011776 175.990716,204.967638 C187.883305,201.705848 187.771543,184.058444 173.475777,178.608757 C164.51198,175.191668 155.252264,186.898211 157.283016,195.333428 C158.710212,201.261632 164.251767,204.558974 169.086021,206.687095" id="Path" stroke="#4A90E2" stroke-width="6" fill="#FFFFFF"></path>
            <path d="M14.1851805,210.408659 C18.1203589,210.261652 22.1837532,211.011776 25.9907157,209.967638 C37.8833049,206.705848 37.7715428,189.058444 23.4757775,183.608757 C14.5119799,180.191668 5.25226408,191.898211 7.2830159,200.333428 C8.71021208,206.261632 14.2517667,209.558974 19.086021,211.687095" id="Path" stroke="#4A90E2" stroke-width="6" fill="#FFFFFF"></path>
            <path d="M136.185181,259.408659 C140.120359,259.261652 144.183753,260.011776 147.990716,258.967638 C159.883305,255.705848 159.771543,238.058444 145.475777,232.608757 C136.51198,229.191668 127.252264,240.898211 129.283016,249.333428 C130.710212,255.261632 136.251767,258.558974 141.086021,260.687095" id="Path" stroke="#4A90E2" stroke-width="6" fill="#FFFFFF"></path>
            <path d="M87.1851805,280.408659 C91.1203589,280.261652 95.1837532,281.011776 98.9907157,279.967638 C110.883305,276.705848 110.771543,259.058444 96.4757775,253.608757 C87.5119799,250.191668 78.2522641,261.898211 80.2830159,270.333428 C81.7102121,276.261632 87.2517667,279.558974 92.086021,281.687095" id="Path" stroke="#4A90E2" stroke-width="6" fill="#FFFFFF"></path>
            <path d="M38.1851805,256.408659 C42.1203589,256.261652 46.1837532,257.011776 49.9907157,255.967638 C61.8833049,252.705848 61.7715428,235.058444 47.4757775,229.608757 C38.5119799,226.191668 29.2522641,237.898211 31.2830159,246.333428 C32.7102121,252.261632 38.2517667,255.558974 43.086021,257.687095" id="Path" stroke="#4A90E2" stroke-width="6" fill="#FFFFFF"></path>
            <path d="M80.1851805,128.408659 C84.1203589,128.261652 88.1837532,129.011776 91.9907157,127.967638 C103.883305,124.705848 103.771543,107.058444 89.4757775,101.608757 C80.5119799,98.1916679 71.2522641,109.898211 73.2830159,118.333428 C74.7102121,124.261632 80.2517667,127.558974 85.086021,129.687095" id="Path" stroke="#4A90E2" stroke-width="6" fill="#FFFFFF"></path>
            <path d="M117.185181,27.4086586 C121.120359,27.2616516 125.183753,28.011776 128.990716,26.9676376 C140.883305,23.7058484 140.771543,6.0584442 126.475777,0.608756515 C117.51198,-2.80833209 108.252264,8.89821067 110.283016,17.3334285 C111.710212,23.2616322 117.251767,26.5589737 122.086021,28.6870945" id="Path" stroke="#4A90E2" stroke-width="6" fill="#FFFFFF"></path>
            <path id="Line" d="M81.1185463,19.5761293 L118.925114,13.8491869 L119.419475,13.7743012 L119.569246,14.7630218 L119.074886,14.8379076 L81.2683178,20.5648499 L81.8674038,24.5197324 L72.2949463,21.418433 L80.5194604,15.6212467 L81.1185463,19.5761293 Z" fill="#000000" fill-rule="nonzero"></path>
            <path id="Line-2" d="M47.9859749,65.4516963 L69.0483972,21.1289431 L69.2630014,20.6773403 L70.1662069,21.1065487 L69.9516028,21.5581514 L48.8891804,65.8809046 L52.5020024,67.597738 L44.5747025,73.79515 L44.3731529,63.7348628 L47.9859749,65.4516963 Z" fill="#000000" fill-rule="nonzero"></path>
            <path id="Line-2" d="M80.4672472,109.639902 L49.1438482,77.8509357 L48.7929125,77.494784 L49.505216,76.7929125 L49.8561518,77.1490643 L81.1795507,108.938031 L84.0287651,106.130545 L87.1402424,115.699699 L77.6180328,112.447388 L80.4672472,109.639902 Z" fill="#000000" fill-rule="nonzero"></path>
            <path id="Line-2" d="M125.607497,143.769532 L91.2071032,118.90523 L90.8018731,118.612333 L91.3876666,117.801873 L91.7928968,118.09477 L126.193291,142.959072 L128.536465,139.717231 L133.194537,148.636444 L123.264323,147.011373 L125.607497,143.769532 Z" fill="#000000" fill-rule="nonzero"></path>
            <path id="Line-2" d="M165.274138,190.856412 L138.100702,154.800934 L137.799768,154.401635 L138.598365,153.799768 L138.899298,154.199066 L166.072735,190.254545 L169.26712,187.847077 L171.09024,197.742845 L162.079753,193.263881 L165.274138,190.856412 Z" fill="#000000" fill-rule="nonzero"></path>
            <path id="Line-2" d="M146.382275,238.624054 L167.059868,200.262759 L167.297109,199.822626 L168.177374,200.297109 L167.940132,200.737241 L147.26254,239.098536 L150.7836,240.996466 L142.552065,246.78368 L142.861215,236.726124 L146.382275,238.624054 Z" fill="#000000" fill-rule="nonzero"></path>
            <path id="Line-2" d="M103.509446,263.533699 L137.302922,249.040478 L137.762444,248.8434 L138.1566,249.762444 L137.697078,249.959522 L103.903602,264.452743 L105.480226,268.128917 L95.4351315,267.540625 L101.932822,259.857525 L103.509446,263.533699 Z" fill="#000000" fill-rule="nonzero"></path>
            <path id="Line-2" d="M52.5961005,249.74266 L86.7261783,267.054081 L87.1720969,267.28026 L86.7197402,268.172097 L86.2738217,267.945919 L52.1437439,250.634497 L50.3343172,254.201846 L44.3433881,246.117369 L54.4055272,246.175312 L52.5961005,249.74266 Z" fill="#000000" fill-rule="nonzero"></path>
            <path id="Line-2" d="M25.125564,204.671362 L42.9445142,239.271074 L43.1734402,239.715588 L42.2844119,240.17344 L42.0554858,239.728926 L24.2365356,205.129214 L20.6804222,206.960623 L20.5603806,196.899033 L28.6816774,202.839954 L25.125564,204.671362 Z" fill="#000000" fill-rule="nonzero"></path>
            <path id="Line-2" d="M136.423001,18.5147648 L169.770116,39.9227893 L170.190874,40.1929055 L169.650642,41.0344214 L169.229884,40.7643052 L135.882769,19.3562806 L133.721839,22.7223441 L128.579242,14.073431 L138.583931,15.1487013 L136.423001,18.5147648 Z" fill="#000000" fill-rule="nonzero"></path>
            <path id="Line-2" d="M180.216933,53.0728567 L193.912466,73.0609315 L194.195082,73.4733977 L193.37015,74.0386292 L193.087534,73.626163 L179.392001,53.6380881 L176.092272,55.8990139 L174.717384,45.9310811 L183.516663,50.8119309 L180.216933,53.0728567 Z" fill="#000000" fill-rule="nonzero"></path>
            <path id="Line-2" d="M4.97597923,169.930409 L16.9400425,192.106139 L17.1774506,192.546182 L16.2973655,193.020998 L16.0599575,192.580955 L4.09589418,170.405225 L0.575554,172.30449 L0.262591959,162.247052 L8.49631941,168.031145 L4.97597923,169.930409 Z" fill="#000000" fill-rule="nonzero"></path>
        </g>
        <g id="Group-2" transform="translate(202.000000, 25.000000)">
            <path d="M31.1851805,27.4086586 C35.1203589,27.2616516 39.1837532,28.011776 42.9907157,26.9676376 C54.8833049,23.7058484 54.7715428,6.0584442 40.4757775,0.608756515 C31.5119799,-2.80833209 22.2522641,8.89821067 24.2830159,17.3334285 C25.7102121,23.2616322 31.2517667,26.5589737 36.086021,28.6870945" id="Path" stroke="#4A90E2" stroke-width="6" fill="#FFFFFF"></path>
            <path d="M86.1851805,28.4086586 C90.1203589,28.2616516 94.1837532,29.011776 97.9907157,27.9676376 C109.883305,24.7058484 109.771543,7.0584442 95.4757775,1.60875652 C86.5119799,-1.80833209 77.2522641,9.89821067 79.2830159,18.3334285 C80.7102121,24.2616322 86.2517667,27.5589737 91.086021,29.6870945" id="Path" stroke="#4A90E2" stroke-width="6" fill="#FFFFFF"></path>
            <path d="M138.185181,27.4086586 C142.120359,27.2616516 146.183753,28.011776 149.990716,26.9676376 C161.883305,23.7058484 161.771543,6.0584442 147.475777,0.608756515 C138.51198,-2.80833209 129.252264,8.89821067 131.283016,17.3334285 C132.710212,23.2616322 138.251767,26.5589737 143.086021,28.6870945" id="Path" stroke="#4A90E2" stroke-width="6" fill="#FFFFFF"></path>
            <path d="M114.185181,84.4086586 C118.120359,84.2616516 122.183753,85.011776 125.990716,83.9676376 C137.883305,80.7058484 137.771543,63.0584442 123.475777,57.6087565 C114.51198,54.1916679 105.252264,65.8982107 107.283016,74.3334285 C108.710212,80.2616322 114.251767,83.5589737 119.086021,85.6870945" id="Path" stroke="#4A90E2" stroke-width="6" fill="#FFFFFF"></path>
            <path d="M114.185181,143.408659 C118.120359,143.261652 122.183753,144.011776 125.990716,142.967638 C137.883305,139.705848 137.771543,122.058444 123.475777,116.608757 C114.51198,113.191668 105.252264,124.898211 107.283016,133.333428 C108.710212,139.261632 114.251767,142.558974 119.086021,144.687095" id="Path" stroke="#4A90E2" stroke-width="6" fill="#FFFFFF"></path>
            <path d="M114.185181,202.408659 C118.120359,202.261652 122.183753,203.011776 125.990716,201.967638 C137.883305,198.705848 137.771543,181.058444 123.475777,175.608757 C114.51198,172.191668 105.252264,183.898211 107.283016,192.333428 C108.710212,198.261632 114.251767,201.558974 119.086021,203.687095" id="Path" stroke="#4A90E2" stroke-width="6" fill="#FFFFFF"></path>
            <path d="M114.185181,274.408659 C118.120359,274.261652 122.183753,275.011776 125.990716,273.967638 C137.883305,270.705848 137.771543,253.058444 123.475777,247.608757 C114.51198,244.191668 105.252264,255.898211 107.283016,264.333428 C108.710212,270.261632 114.251767,273.558974 119.086021,275.687095" id="Path" stroke="#4A90E2" stroke-width="6" fill="#FFFFFF"></path>
            <path d="M198.185181,28.4086586 C202.120359,28.2616516 206.183753,29.011776 209.990716,27.9676376 C221.883305,24.7058484 221.771543,7.0584442 207.475777,1.60875652 C198.51198,-1.80833209 189.252264,9.89821067 191.283016,18.3334285 C192.710212,24.2616322 198.251767,27.5589737 203.086021,29.6870945" id="Path" stroke="#4A90E2" stroke-width="6" fill="#FFFFFF"></path>
            <path id="Line-2" d="M121.248885,202.002281 L120.999994,254.345925 L120.997617,254.845919 L119.997628,254.841164 L120.000006,254.34117 L120.248896,201.997526 L116.248941,201.978507 L120.791684,193.000006 L125.248839,202.021301 L121.248885,202.002281 Z" fill="#000000" fill-rule="nonzero"></path>
            <path id="Line-2" d="M121.289307,274 L121.289307,297.5 L121.289307,298 L120.289307,298 L120.289307,297.5 L120.289307,274 L116.289307,274 L120.789307,265 L125.289307,274 L121.289307,274 Z" fill="#000000" fill-rule="nonzero"></path>
            <path id="Line-2" d="M121,143.5 L121,185.343547 L121,185.843547 L120,185.843547 L120,185.343547 L120,143.5 L116,143.5 L120.5,134.5 L125,143.5 L121,143.5 Z" fill="#000000" fill-rule="nonzero"></path>
            <path id="Line-2" d="M121,82.5 L121,124.343547 L121,124.843547 L120,124.843547 L120,124.343547 L120,82.5 L116,82.5 L120.5,73.5 L125,82.5 L121,82.5 Z" fill="#000000" fill-rule="nonzero"></path>
            <path id="Line-2" d="M142.268942,23.4766746 L123.968079,72.2064326 L123.792288,72.6745112 L122.856131,72.3229296 L123.031921,71.854851 L141.332785,23.125093 L137.588156,21.7187667 L144.965097,14.8754686 L146.013571,24.883001 L142.268942,23.4766746 Z" fill="#000000" fill-rule="nonzero"></path>
            <path id="Line-2" d="M196.281875,15.6951239 L147.491274,14.8434711 L146.99135,14.8347448 L147.008802,13.8348971 L147.508726,13.8436234 L196.299328,14.6952763 L196.369138,10.6958855 L205.28923,15.3522736 L196.212065,19.6945147 L196.281875,15.6951239 Z" fill="#000000" fill-rule="nonzero"></path>
            <path id="Line-2" d="M46.2893066,13.8435473 L84,13.8435473 L84.5,13.8435473 L84.5,14.8435473 L84,14.8435473 L46.2893066,14.8435473 L46.2893066,18.8435473 L37.2893066,14.3435473 L46.2893066,9.84354725 L46.2893066,13.8435473 Z" fill="#000000" fill-rule="nonzero"></path>
            <path id="Line-2" d="M9.78930665,13.8435473 L31.2893066,13.8435473 L31.7893066,13.8435473 L31.7893066,14.8435473 L31.2893066,14.8435473 L9.78930665,14.8435473 L9.78930665,18.8435473 L0.789306646,14.3435473 L9.78930665,9.84354725 L9.78930665,13.8435473 Z" fill="#000000" fill-rule="nonzero"></path>
            <path id="Line-2" d="M235,15.8435473 L209.5,15.8435473 L209,15.8435473 L209,14.8435473 L209.5,14.8435473 L235,14.8435473 L235,10.8435473 L244,15.3435473 L235,19.8435473 L235,15.8435473 Z" fill="#000000" fill-rule="nonzero"></path>
            <path id="Line-2" d="M94.4514381,19.0422899 L117.95576,71.1379191 L118.161388,71.593679 L117.249868,72.0049353 L117.04424,71.5491754 L93.5399184,19.4535461 L89.8938393,21.0985712 L90.2943719,11.0442401 L98.0975172,17.3972648 L94.4514381,19.0422899 Z" fill="#000000" fill-rule="nonzero"></path>
        </g>
        <g id="Group-3" transform="translate(446.000000, 4.000000)">
            <path d="M84.1851805,51.4086586 C88.1203589,51.2616516 92.1837532,52.011776 95.9907157,50.9676376 C107.883305,47.7058484 107.771543,30.0584442 93.4757775,24.6087565 C84.5119799,21.1916679 75.2522641,32.8982107 77.2830159,41.3334285 C78.7102121,47.2616322 84.2517667,50.5589737 89.086021,52.6870945" id="Path" stroke="#4A90E2" stroke-width="6" fill="#FFFFFF"></path>
            <path d="M119.185181,109.408659 C123.120359,109.261652 127.183753,110.011776 130.990716,108.967638 C142.883305,105.705848 142.771543,88.0584442 128.475777,82.6087565 C119.51198,79.1916679 110.252264,90.8982107 112.283016,99.3334285 C113.710212,105.261632 119.251767,108.558974 124.086021,110.687095" id="Path" stroke="#4A90E2" stroke-width="6" fill="#FFFFFF"></path>
            <path d="M133.185181,172.408659 C137.120359,172.261652 141.183753,173.011776 144.990716,171.967638 C156.883305,168.705848 156.771543,151.058444 142.475777,145.608757 C133.51198,142.191668 124.252264,153.898211 126.283016,162.333428 C127.710212,168.261632 133.251767,171.558974 138.086021,173.687095" id="Path" stroke="#4A90E2" stroke-width="6" fill="#FFFFFF"></path>
            <path d="M147.185181,230.408659 C151.120359,230.261652 155.183753,231.011776 158.990716,229.967638 C170.883305,226.705848 170.771543,209.058444 156.475777,203.608757 C147.51198,200.191668 138.252264,211.898211 140.283016,220.333428 C141.710212,226.261632 147.251767,229.558974 152.086021,231.687095" id="Path" stroke="#4A90E2" stroke-width="6" fill="#FFFFFF"></path>
            <path d="M161.185181,295.408659 C165.120359,295.261652 169.183753,296.011776 172.990716,294.967638 C184.883305,291.705848 184.771543,274.058444 170.475777,268.608757 C161.51198,265.191668 152.252264,276.898211 154.283016,285.333428 C155.710212,291.261632 161.251767,294.558974 166.086021,296.687095" id="Path" stroke="#4A90E2" stroke-width="6" fill="#FFFFFF"></path>
            <path d="M49.1851805,109.408659 C53.1203589,109.261652 57.1837532,110.011776 60.9907157,108.967638 C72.8833049,105.705848 72.7715428,88.0584442 58.4757775,82.6087565 C49.5119799,79.1916679 40.2522641,90.8982107 42.2830159,99.3334285 C43.7102121,105.261632 49.2517667,108.558974 54.086021,110.687095" id="Path" stroke="#4A90E2" stroke-width="6" fill="#FFFFFF"></path>
            <path d="M35.1851805,171.408659 C39.1203589,171.261652 43.1837532,172.011776 46.9907157,170.967638 C58.8833049,167.705848 58.7715428,150.058444 44.4757775,144.608757 C35.5119799,141.191668 26.2522641,152.898211 28.2830159,161.333428 C29.7102121,167.261632 35.2517667,170.558974 40.086021,172.687095" id="Path" stroke="#4A90E2" stroke-width="6" fill="#FFFFFF"></path>
            <path d="M21.1851805,230.408659 C25.1203589,230.261652 29.1837532,231.011776 32.9907157,229.967638 C44.8833049,226.705848 44.7715428,209.058444 30.4757775,203.608757 C21.5119799,200.191668 12.2522641,211.898211 14.2830159,220.333428 C15.7102121,226.261632 21.2517667,229.558974 26.086021,231.687095" id="Path" stroke="#4A90E2" stroke-width="6" fill="#FFFFFF"></path>
            <path d="M84.1851805,230.408659 C88.1203589,230.261652 92.1837532,231.011776 95.9907157,229.967638 C107.883305,226.705848 107.771543,209.058444 93.4757775,203.608757 C84.5119799,200.191668 75.2522641,211.898211 77.2830159,220.333428 C78.7102121,226.261632 84.2517667,229.558974 89.086021,231.687095" id="Path" stroke="#4A90E2" stroke-width="6" fill="#FFFFFF"></path>
            <path d="M7.18518052,295.408659 C11.1203589,295.261652 15.1837532,296.011776 18.9907157,294.967638 C30.8833049,291.705848 30.7715428,274.058444 16.4757775,268.608757 C7.51197994,265.191668 -1.74773592,276.898211 0.283015905,285.333428 C1.71021208,291.261632 7.25176671,294.558974 12.086021,296.687095" id="Path" stroke="#4A90E2" stroke-width="6" fill="#FFFFFF"></path>
            <path id="Line-2" d="M59.7252224,88.7931455 L90.0709624,38.0867853 L90.3277243,37.6577477 L91.1857996,38.1712716 L90.9290376,38.6003092 L60.5832977,89.3066694 L64.0155988,91.3607651 L55.5325447,96.7725849 L56.2929213,86.7390497 L59.7252224,88.7931455 Z" fill="#000000" fill-rule="nonzero"></path>
            <path id="Line-2" d="M43.0762792,150.961603 L55.013809,101.22685 L55.1305065,100.740659 L56.1028885,100.974054 L55.986191,101.460245 L44.0486612,151.194997 L47.9381894,152.128577 L41.4619158,159.829738 L39.1867511,150.028023 L43.0762792,150.961603 Z" fill="#000000" fill-rule="nonzero"></path>
            <path id="Line-2" d="M28.8655859,214.961603 L40.8031156,165.22685 L40.9198131,164.740659 L41.8921951,164.974054 L41.7754977,165.460245 L29.8379679,215.194997 L33.727496,216.128577 L27.2512225,223.829738 L24.9760578,214.028023 L28.8655859,214.961603 Z" fill="#000000" fill-rule="nonzero"></path>
            <path id="Line-2" d="M15.0704228,273.925784 L25.0109625,227.239421 L25.1150892,226.750383 L26.0931641,226.958636 L25.9890375,227.447674 L16.0484978,274.134037 L19.9607974,274.967051 L13.68518,282.832585 L11.1581232,273.09277 L15.0704228,273.925784 Z" fill="#000000" fill-rule="nonzero"></path>
            <path id="Line-2" d="M178.651457,317.504266 L169.021191,285.487568 L168.877171,285.008759 L169.834789,284.720718 L169.978809,285.199527 L179.609075,317.216226 L183.439548,316.064062 L181.722634,325.978809 L174.820984,318.65643 L178.651457,317.504266 Z" fill="#000000" fill-rule="nonzero"></path>
            <path id="Line-2" d="M138.644653,223.843547 L101.5,223.843547 L101,223.843547 L101,222.843547 L101.5,222.843547 L138.644653,222.843547 L138.644653,218.843547 L147.644653,223.343547 L138.644653,227.843547 L138.644653,223.843547 Z" fill="#000000" fill-rule="nonzero"></path>
            <path id="Line-2" d="M42.8286133,222.843547 L81.5,222.843547 L82,222.843547 L82,223.843547 L81.5,223.843547 L42.8286133,223.843547 L42.8286133,227.843547 L33.8286133,223.343547 L42.8286133,218.843547 L42.8286133,222.843547 Z" fill="#000000" fill-rule="nonzero"></path>
            <path id="Line-2" d="M1.91549288,317.203562 L11.0202622,286.202651 L11.1611581,285.722914 L12.1206337,286.004705 L11.9797378,286.484443 L2.87496845,317.485354 L6.7128707,318.612521 L-0.140895921,325.979738 L-1.92240937,316.076394 L1.91549288,317.203562 Z" fill="#000000" fill-rule="nonzero"></path>
            <path id="Line-2" d="M121.136161,89.3547656 L90.0735409,38.6045696 L89.8125186,38.1781105 L90.6654367,37.6560658 L90.9264591,38.0825249 L121.989079,88.8327209 L125.400751,86.744542 L126.261022,96.7700063 L117.724488,91.4429444 L121.136161,89.3547656 Z" fill="#000000" fill-rule="nonzero"></path>
            <path id="Line-2" d="M90.366613,23.8524448 L90.0000616,0.507849917 L89.9922117,0.0079115415 L90.9920885,-0.00778829153 L90.9999384,0.492150083 L91.3664898,23.836745 L95.3659968,23.7739456 L91.0078499,32.8434856 L86.367106,23.9152441 L90.366613,23.8524448 Z" fill="#000000" fill-rule="nonzero"></path>
            <path id="Line-2" d="M137.586078,150.178195 L126.013018,100.456897 L125.899668,99.9699142 L126.873633,99.7432154 L126.986982,100.230198 L138.560043,149.951496 L142.455903,149.044701 L140.113349,158.83053 L133.690219,151.08499 L137.586078,150.178195 Z" fill="#000000" fill-rule="nonzero"></path>
            <path id="Line-2" d="M151.423584,209.228002 L139.804684,163.466594 L139.681637,162.981971 L140.650883,162.735878 L140.77393,163.220501 L152.39283,208.981908 L156.269815,207.997535 L154.123047,217.82817 L147.546599,210.212375 L151.423584,209.228002 Z" fill="#000000" fill-rule="nonzero"></path>
            <path id="Line-2" d="M166.634277,271.228002 L155.015377,225.466594 L154.89233,224.981971 L155.861576,224.735878 L155.984623,225.220501 L167.603524,270.981908 L171.480508,269.997535 L169.33374,279.82817 L162.757293,272.212375 L166.634277,271.228002 Z" fill="#000000" fill-rule="nonzero"></path>
            <path id="Line-2" d="M90.2755693,208.844366 L90.0000007,38.3443554 L89.9991925,37.844356 L90.9991912,37.8427398 L90.9999993,38.3427391 L91.275568,208.84275 L95.2755628,208.836285 L90.7901148,217.843547 L86.2755745,208.850831 L90.2755693,208.844366 Z" fill="#000000" fill-rule="nonzero"></path>
        </g>
        <g id="Group-4" transform="translate(712.000000, 1.000000)">
            <path d="M7.18518052,54.4086586 C11.1203589,54.2616516 15.1837532,55.011776 18.9907157,53.9676376 C30.8833049,50.7058484 30.7715428,33.0584442 16.4757775,27.6087565 C7.51197994,24.1916679 -1.74773592,35.8982107 0.283015905,44.3334285 C1.71021208,50.2616322 7.25176671,53.5589737 12.086021,55.6870945" id="Path" stroke="#4A90E2" stroke-width="6" fill="#FFFFFF"></path>
            <path d="M7.18518052,112.408659 C11.1203589,112.261652 15.1837532,113.011776 18.9907157,111.967638 C30.8833049,108.705848 30.7715428,91.0584442 16.4757775,85.6087565 C7.51197994,82.1916679 -1.74773592,93.8982107 0.283015905,102.333428 C1.71021208,108.261632 7.25176671,111.558974 12.086021,113.687095" id="Path" stroke="#4A90E2" stroke-width="6" fill="#FFFFFF"></path>
            <path d="M7.18518052,171.408659 C11.1203589,171.261652 15.1837532,172.011776 18.9907157,170.967638 C30.8833049,167.705848 30.7715428,150.058444 16.4757775,144.608757 C7.51197994,141.191668 -1.74773592,152.898211 0.283015905,161.333428 C1.71021208,167.261632 7.25176671,170.558974 12.086021,172.687095" id="Path" stroke="#4A90E2" stroke-width="6" fill="#FFFFFF"></path>
            <path d="M7.18518052,236.408659 C11.1203589,236.261652 15.1837532,237.011776 18.9907157,235.967638 C30.8833049,232.705848 30.7715428,215.058444 16.4757775,209.608757 C7.51197994,206.191668 -1.74773592,217.898211 0.283015905,226.333428 C1.71021208,232.261632 7.25176671,235.558974 12.086021,237.687095" id="Path" stroke="#4A90E2" stroke-width="6" fill="#FFFFFF"></path>
            <path d="M7.18518052,298.408659 C11.1203589,298.261652 15.1837532,299.011776 18.9907157,297.967638 C30.8833049,294.705848 30.7715428,277.058444 16.4757775,271.608757 C7.51197994,268.191668 -1.74773592,279.898211 0.283015905,288.333428 C1.71021208,294.261632 7.25176671,297.558974 12.086021,299.687095" id="Path" stroke="#4A90E2" stroke-width="6" fill="#FFFFFF"></path>
            <path id="Line-2" d="M13.2893066,90.8435473 L13.2893066,41.3435473 L13.2893066,40.8435473 L14.2893066,40.8435473 L14.2893066,41.3435473 L14.2893066,90.8435473 L18.2893066,90.8435473 L13.7893066,99.8435473 L9.28930665,90.8435473 L13.2893066,90.8435473 Z" fill="#000000" fill-rule="nonzero"></path>
            <path id="Line-2" d="M13.2451303,150.502714 L13.0000068,103.346146 L12.9974078,102.846153 L13.9973942,102.840955 L13.9999932,103.340948 L14.2451168,150.497516 L18.2450628,150.476724 L13.7919057,159.499993 L9.24518436,150.523506 L13.2451303,150.502714 Z" fill="#000000" fill-rule="nonzero"></path>
            <path id="Line-2" d="M13.2451303,214.502714 L13.0000068,167.346146 L12.9974078,166.846153 L13.9973942,166.840955 L13.9999932,167.340948 L14.2451168,214.497516 L18.2450628,214.476724 L13.7919057,223.499993 L9.24518436,214.523506 L13.2451303,214.502714 Z" fill="#000000" fill-rule="nonzero"></path>
            <path id="Line-2" d="M13.2451303,279.502714 L13.0000068,232.346146 L12.9974078,231.846153 L13.9973942,231.840955 L13.9999932,232.340948 L14.2451168,279.497516 L18.2450628,279.476724 L13.7919057,288.499993 L9.24518436,279.523506 L13.2451303,279.502714 Z" fill="#000000" fill-rule="nonzero"></path>
            <path id="Line-2" d="M13.2183699,320.50447 L13.0000174,294.347721 L12.9958436,293.847738 L13.9958088,293.839391 L13.9999826,294.339373 L14.218335,320.496122 L18.2181957,320.462732 L13.7934804,329.499983 L9.21850923,320.53786 L13.2183699,320.50447 Z" fill="#000000" fill-rule="nonzero"></path>
            <path id="Line-2" d="M13.2183699,26.5044699 L13.0000174,0.347721029 L12.9958436,-0.152261551 L13.9958088,-0.160609103 L13.9999826,0.339373476 L14.218335,26.4961224 L18.2181957,26.4627322 L13.7934804,35.4999826 L9.21850923,26.5378601 L13.2183699,26.5044699 Z" fill="#000000" fill-rule="nonzero"></path>
        </g>
        <g id="Group-5" transform="translate(824.000000, 25.000000)">
            <path d="M7.18518052,27.4086586 C11.1203589,27.2616516 15.1837532,28.011776 18.9907157,26.9676376 C30.8833049,23.7058484 30.7715428,6.0584442 16.4757775,0.608756515 C7.51197994,-2.80833209 -1.74773592,8.89821067 0.283015905,17.3334285 C1.71021208,23.2616322 7.25176671,26.5589737 12.086021,28.6870945" id="Path" stroke="#4A90E2" stroke-width="6" fill="#FFFFFF"></path>
            <path d="M71.1851805,27.4086586 C75.1203589,27.2616516 79.1837532,28.011776 82.9907157,26.9676376 C94.8833049,23.7058484 94.7715428,6.0584442 80.4757775,0.608756515 C71.5119799,-2.80833209 62.2522641,8.89821067 64.2830159,17.3334285 C65.7102121,23.2616322 71.2517667,26.5589737 76.086021,28.6870945" id="Path" stroke="#4A90E2" stroke-width="6" fill="#FFFFFF"></path>
            <path d="M120.185181,60.4086586 C124.120359,60.2616516 128.183753,61.011776 131.990716,59.9676376 C143.883305,56.7058484 143.771543,39.0584442 129.475777,33.6087565 C120.51198,30.1916679 111.252264,41.8982107 113.283016,50.3334285 C114.710212,56.2616322 120.251767,59.5589737 125.086021,61.6870945" id="Path" stroke="#4A90E2" stroke-width="6" fill="#FFFFFF"></path>
            <path d="M93.1851805,114.408659 C97.1203589,114.261652 101.183753,115.011776 104.990716,113.967638 C116.883305,110.705848 116.771543,93.0584442 102.475777,87.6087565 C93.5119799,84.1916679 84.2522641,95.8982107 86.2830159,104.333428 C87.7102121,110.261632 93.2517667,113.558974 98.086021,115.687095" id="Path" stroke="#4A90E2" stroke-width="6" fill="#FFFFFF"></path>
            <path d="M54.7637938,153.408659 C58.6989722,153.261652 62.7623665,154.011776 66.569329,152.967638 C78.4619182,149.705848 78.3501561,132.058444 64.0543907,126.608757 C55.0905932,123.191668 45.8308774,134.898211 47.8616292,143.333428 C49.2888254,149.261632 54.83038,152.558974 59.6646343,154.687095" id="Path" stroke="#4A90E2" stroke-width="6" fill="#FFFFFF"></path>
            <path d="M93.1851805,216.408659 C97.1203589,216.261652 101.183753,217.011776 104.990716,215.967638 C116.883305,212.705848 116.771543,195.058444 102.475777,189.608757 C93.5119799,186.191668 84.2522641,197.898211 86.2830159,206.333428 C87.7102121,212.261632 93.2517667,215.558974 98.086021,217.687095" id="Path" stroke="#4A90E2" stroke-width="6" fill="#FFFFFF"></path>
            <path d="M112.185181,274.408659 C116.120359,274.261652 120.183753,275.011776 123.990716,273.967638 C135.883305,270.705848 135.771543,253.058444 121.475777,247.608757 C112.51198,244.191668 103.252264,255.898211 105.283016,264.333428 C106.710212,270.261632 112.251767,273.558974 117.086021,275.687095" id="Path" stroke="#4A90E2" stroke-width="6" fill="#FFFFFF"></path>
            <path d="M7.18518052,90.4086586 C11.1203589,90.2616516 15.1837532,91.011776 18.9907157,89.9676376 C30.8833049,86.7058484 30.7715428,69.0584442 16.4757775,63.6087565 C7.51197994,60.1916679 -1.74773592,71.8982107 0.283015905,80.3334285 C1.71021208,86.2616322 7.25176671,89.5589737 12.086021,91.6870945" id="Path" stroke="#4A90E2" stroke-width="6" fill="#FFFFFF"></path>
            <path d="M7.18518052,153.408659 C11.1203589,153.261652 15.1837532,154.011776 18.9907157,152.967638 C30.8833049,149.705848 30.7715428,132.058444 16.4757775,126.608757 C7.51197994,123.191668 -1.74773592,134.898211 0.283015905,143.333428 C1.71021208,149.261632 7.25176671,152.558974 12.086021,154.687095" id="Path" stroke="#4A90E2" stroke-width="6" fill="#FFFFFF"></path>
            <path d="M7.18518052,216.408659 C11.1203589,216.261652 15.1837532,217.011776 18.9907157,215.967638 C30.8833049,212.705848 30.7715428,195.058444 16.4757775,189.608757 C7.51197994,186.191668 -1.74773592,197.898211 0.283015905,206.333428 C1.71021208,212.261632 7.25176671,215.558974 12.086021,217.687095" id="Path" stroke="#4A90E2" stroke-width="6" fill="#FFFFFF"></path>
            <path d="M7.18518052,279.408659 C11.1203589,279.261652 15.1837532,280.011776 18.9907157,278.967638 C30.8833049,275.705848 30.7715428,258.058444 16.4757775,252.608757 C7.51197994,249.191668 -1.74773592,260.898211 0.283015905,269.333428 C1.71021208,275.261632 7.25176671,278.558974 12.086021,280.687095" id="Path" stroke="#4A90E2" stroke-width="6" fill="#FFFFFF"></path>
            <path id="Line-2" d="M14.2124423,274.84772 L13.9999796,298.348067 L13.9954593,298.848047 L12.9955002,298.839007 L13.0000204,298.339027 L13.2124831,274.83868 L9.2126466,274.802518 L13.7938269,265.843568 L18.2122788,274.883882 L14.2124423,274.84772 Z" fill-rule="nonzero"></path>
            <path id="Line-2" d="M14.2329683,216.846674 L13.999989,252.003313 L13.9966756,252.503302 L12.9966976,252.496676 L13.000011,251.996687 L13.2329903,216.840047 L9.2330781,216.81354 L13.79262,207.843558 L18.2328805,216.873181 L14.2329683,216.846674 Z" fill-rule="nonzero"></path>
            <path id="Line-2" d="M13.2329683,157.846674 L12.999989,193.003313 L12.9966756,193.503302 L11.9966976,193.496676 L12.000011,192.996687 L12.2329903,157.840047 L8.2330781,157.81354 L12.79262,148.843558 L17.2328805,157.873181 L13.2329683,157.846674 Z" fill-rule="nonzero"></path>
            <path id="Line-2" d="M13,90 L13,135 L13,135.5 L12,135.5 L12,135 L12,90 L8,90 L12.5,81 L17,90 L13,90 Z" fill-rule="nonzero"></path>
            <path id="Line-2" d="M14.23962,31.0027771 L13.9999915,72.0029222 L13.9970692,72.5029137 L12.9970863,72.4970692 L13.0000085,71.9970778 L13.2396371,30.9969326 L9.23970543,30.9735547 L13.7922289,22.0000085 L18.2395517,31.026155 L14.23962,31.0027771 Z" fill-rule="nonzero"></path>
            <path id="Line-2" d="M65.9961873,14.9303134 L13.4959018,14.4999832 L12.9959186,14.495885 L13.004115,13.4959186 L13.5040982,13.5000168 L66.0043838,13.930347 L66.0371695,9.93048137 L74.9999832,14.5040982 L65.9634015,18.930179 L65.9961873,14.9303134 Z" fill-rule="nonzero"></path>
            <path id="Line-2" d="M119.164188,37.7108614 L80.2515846,15.4339237 L79.8176609,15.1855083 L80.3144917,14.3176609 L80.7484154,14.5660763 L119.661019,36.843014 L121.648343,33.3716244 L127.22323,41.7484154 L117.176865,41.182251 L119.164188,37.7108614 Z" fill-rule="nonzero"></path>
            <path id="Line-2" d="M106.753882,89.573292 L126.046052,47.7904014 L126.255651,47.3364538 L127.163546,47.755651 L126.953948,48.2095986 L107.661777,89.9924892 L111.293358,91.6692779 L103.435055,97.9539476 L103.122301,87.8965034 L106.753882,89.573292 Z" fill-rule="nonzero"></path>
            <path id="Line-2" d="M72.748865,128.295567 L97.1250811,100.669189 L97.4558919,100.29427 L98.2057297,100.955892 L97.8749189,101.330811 L73.4987028,128.957189 L76.4980543,131.603676 L67.1691892,135.374919 L69.7495136,125.649081 L72.748865,128.295567 Z" fill-rule="nonzero"></path>
            <path id="Line-2" d="M92.2988953,190.758449 L60.9547907,144.781646 L60.6731451,144.368516 L61.4994035,143.805225 L61.7810491,144.218354 L93.1251537,190.195158 L96.4301874,187.941993 L97.7816456,197.913129 L88.9938616,193.011614 L92.2988953,190.758449 Z" fill-rule="nonzero"></path>
            <path id="Line-2" d="M112.268828,253.303622 L98.0190268,203.136619 L97.8824077,202.655646 L98.8443541,202.382408 L98.9809732,202.863381 L113.230775,253.030384 L117.07856,251.937431 L115.208946,261.82452 L108.421043,254.396575 L112.268828,253.303622 Z" fill-rule="nonzero"></path>
            <path id="Line-2" d="M123.246635,284.757295 L116.033901,266.180975 L115.852926,265.714876 L116.785124,265.352926 L116.966099,265.819025 L124.178833,284.395345 L127.907623,282.947547 L126.970281,292.966099 L119.517845,286.205094 L123.246635,284.757295 Z" fill-rule="nonzero"></path>
        </g>
    </g>
</svg>